<svg xmlns="http://www.w3.org/2000/svg" width="200" height="200" viewBox="0 0 200 200">
  <path d="M100 30 C110 60, 140 60, 120 90 C100 60, 80 60, 100 30" fill="#3a84f2" />
  <path d="M170 100 C140 90, 140 60, 120 90 C140 100, 140 140, 170 100" fill="#3c72c2" />
  <path d="M100 170 C110 140, 140 140, 120 110 C100 140, 80 140, 100 170" fill="#48aaf0" />
  <path d="M30 100 C60 90, 60 60, 80 90 C60 100, 60 140, 30 100" fill="#54bde3" />
  <path d="M140 40 C120 70, 140 90, 110 80 C140 60, 160 60, 140 40" fill="#54bde3" />
  <path d="M140 160 C120 130, 140 110, 110 120 C140 140, 160 140, 140 160" fill="#3c72c2" />
  <path d="M60 160 C80 130, 60 110, 90 120 C60 140, 40 140, 60 160" fill="#48aaf0" />
  <path d="M60 40 C80 70, 60 90, 90 80 C60 60, 40 60, 60 40" fill="#3a84f2" />
</svg>